# Blender v2.82 (sub 7) OBJ File: ''
# www.blender.org
mtllib car.mtl
o Cube
v 5.334002 2.111123 -3.668019
v 6.282608 0.270110 -3.231149
v 5.334002 2.111123 3.668019
v 6.282608 0.270110 3.231149
v -6.216991 2.111123 -3.668019
v -6.844096 0.270110 -3.231149
v -6.216991 2.111123 3.668019
v -6.844096 0.270110 3.231149
v -4.783881 0.270110 -3.231149
v 6.751896 1.785236 -3.668019
v 7.107757 1.479340 -3.668019
v 6.890431 1.078073 -3.642669
v -4.783881 0.270110 3.231149
v 6.751896 1.785236 3.668019
v 7.107757 1.479340 3.668019
v 6.890431 1.078073 3.642669
v -7.423599 1.785236 3.668019
v -7.423599 1.785236 -3.668019
v -7.657609 1.078073 -3.642669
v 5.334002 2.555695 -1.834010
v -7.657609 1.078073 3.642669
v 5.334002 2.555695 1.834010
v -6.216991 2.365437 1.834010
v -6.216991 2.365437 -1.834010
v -5.209874 2.111123 -3.668019
v -5.209874 2.111123 3.668019
v 7.019078 0.268563 -1.670069
v 7.710049 1.479340 -1.834010
v 7.019078 0.268563 1.670069
v 7.354188 1.880593 -1.834010
v 7.710049 1.479340 1.834010
v 7.354188 1.880593 1.834010
v -7.423599 1.880593 -1.834010
v -7.423599 1.880593 1.834010
v 0.877741 2.555695 2.284493
v 0.877741 2.555695 -2.284493
v -3.855024 4.152246 1.834010
v -3.855024 4.152246 -1.834010
v -1.927512 4.247375 1.834010
v -1.927512 4.247375 -1.834010
v -0.201923 4.146986 1.834010
v -0.201923 4.146986 -1.834010
v -5.404982 2.502317 1.793313
v -5.404982 2.502317 -1.793313
v -2.137202 2.529006 2.284493
v 4.841853 0.270110 3.231149
v -2.137202 2.529006 -2.284493
v 2.080536 0.270110 3.231149
v 4.841853 0.270110 -3.231149
v 2.080536 0.270110 -3.231149
v 5.358805 1.078073 3.642669
v 5.358805 1.078073 -3.642669
v 5.052554 0.269336 2.450609
v 5.052554 0.269336 -2.450609
v 2.071261 0.269336 -2.450609
v 2.071261 0.269336 2.450609
v -2.011953 0.270110 3.231149
v -2.011953 0.270110 -3.231149
v -2.205670 1.078073 3.642669
v -2.205670 1.078073 -3.642669
v -2.046342 0.269336 2.450609
v -4.780941 0.269336 2.450609
v -2.046342 0.269336 -2.450609
v 4.841800 0.005779 3.231091
v -4.780941 0.269336 -2.450609
v 4.841800 0.005779 -3.231091
v -4.783933 0.005779 -3.231091
v -4.783933 0.005779 3.231091
v 5.052502 0.005005 2.450551
v 2.071208 0.005005 2.450551
v 5.052502 0.005005 -2.450551
v 2.071208 0.005005 -2.450551
v -2.046395 0.005005 2.450551
v -4.780994 0.005005 2.450551
v -5.184197 1.078073 3.642669
v 2.300017 1.078073 3.642669
v -2.046395 0.005005 -2.450551
v -4.780994 0.005005 -2.450551
v -5.184197 1.078073 -3.642669
v 2.300017 1.078073 -3.642669
v -2.012006 0.005779 3.231091
v -2.012006 0.005779 -3.231091
v 2.080484 0.005779 3.231091
v 2.080484 0.005779 -3.231091
v -5.184197 1.078073 3.792669
v -5.184249 0.813742 3.792611
v 2.300017 1.078073 3.792669
v 5.358805 1.078073 3.792669
v 5.358752 0.813742 3.792611
v -2.205670 1.078073 3.792669
v 4.841800 0.005779 3.381091
v -2.012006 0.005779 3.381091
v -4.783933 0.005779 3.381091
v 2.299965 0.813742 3.792611
v 2.080484 0.005779 3.381091
v -2.205723 0.813742 3.792611
v 0.062064 2.111123 3.668019
v -5.184197 1.078073 -3.792669
v -5.184249 0.813742 -3.792611
v 2.300017 1.078073 -3.792669
v 5.358805 1.078073 -3.792669
v 5.358752 0.813742 -3.792611
v -2.205670 1.078073 -3.792669
v 4.841800 0.005779 -3.381091
v -2.012006 0.005779 -3.381091
v -4.783933 0.005779 -3.381091
v 2.299965 0.813742 -3.792611
v 2.080484 0.005779 -3.381091
v -2.205723 0.813742 -3.792611
v 0.062064 2.111123 -3.668019
v -2.573905 2.111123 3.668019
v -2.573905 2.111123 -3.668019
v -6.844096 0.270110 0.000000
v 5.334002 2.555695 0.000000
v -6.216991 2.365437 0.000000
v 7.019078 0.268563 -0.000000
v 7.710049 1.479340 0.000000
v 7.354188 1.880593 0.000000
v -7.657609 1.078073 0.000000
v -7.423599 1.880593 0.000000
v 0.877741 2.555695 0.000000
v -3.855024 4.152246 0.000000
v -1.927512 4.247375 0.000000
v -0.201923 4.146986 0.000000
v -5.404982 2.502317 0.000000
vt 0.131201 0.869384
vt 0.131543 0.869726
vt 0.131201 0.869726
vt 0.343408 0.882300
vt 0.343066 0.882300
vt 0.342810 0.882556
vt 0.349609 0.857422
vt 0.380859 0.794922
vt 0.380859 0.857422
vt 0.131543 0.871094
vt 0.131201 0.871436
vt 0.131201 0.871094
vt 0.342040 0.882983
vt 0.342553 0.882300
vt 0.342040 0.882812
vt 0.130517 0.869042
vt 0.130176 0.869726
vt 0.130517 0.869726
vt 0.332489 0.880830
vt 0.332489 0.880830
vt 0.332488 0.880830
vt 0.131201 0.871778
vt 0.131543 0.871436
vt 0.131543 0.871778
vt 0.385224 0.876924
vt 0.385222 0.876923
vt 0.385224 0.876923
vt 0.342040 0.882983
vt 0.342553 0.882300
vt 0.342040 0.882983
vt 0.332489 0.880830
vt 0.332488 0.880830
vt 0.342553 0.882983
vt 0.342810 0.882556
vt 0.342553 0.882983
vt 0.343408 0.882300
vt 0.343408 0.882642
vt 0.343408 0.882300
vt 0.333186 0.885487
vt 0.333186 0.885487
vt 0.333186 0.885487
vt 0.130176 0.869726
vt 0.130517 0.870068
vt 0.130176 0.870068
vt 0.132227 0.871778
vt 0.132227 0.871436
vt 0.132911 0.871436
vt 0.132569 0.871094
vt 0.332488 0.880830
vt 0.332488 0.880830
vt 0.332488 0.880830
vt 0.131543 0.870068
vt 0.131543 0.869726
vt 0.131201 0.869726
vt 0.343408 0.882642
vt 0.343408 0.882642
vt 0.342981 0.882727
vt 0.132740 0.871436
vt 0.132911 0.871778
vt 0.132740 0.871778
vt 0.333984 0.857422
vt 0.349609 0.794922
vt 0.397754 0.843579
vt 0.398096 0.843237
vt 0.397754 0.843237
vt 0.343408 0.881787
vt 0.343408 0.881787
vt 0.343066 0.881787
vt 0.342895 0.882983
vt 0.342895 0.882983
vt 0.332489 0.880830
vt 0.332489 0.880830
vt 0.130517 0.870068
vt 0.343408 0.881787
vt 0.343408 0.881958
vt 0.397241 0.843750
vt 0.397583 0.843750
vt 0.397241 0.843921
vt 0.380859 0.794922
vt 0.342895 0.882983
vt 0.342981 0.882727
vt 0.342895 0.882812
vt 0.130176 0.869046
vt 0.343408 0.882642
vt 0.343066 0.882642
vt 0.412109 0.794922
vt 0.412109 0.857422
vt 0.333186 0.885487
vt 0.333186 0.885487
vt 0.333186 0.885487
vt 0.412109 0.794922
vt 0.131201 0.871436
vt 0.130859 0.871778
vt 0.343408 0.882300
vt 0.343066 0.882300
vt 0.341797 0.794922
vt 0.333984 0.794922
vt 0.349609 0.794922
vt 0.343408 0.882300
vt 0.343066 0.882642
vt 0.342553 0.882983
vt 0.342553 0.882983
vt 0.136719 0.541016
vt 0.121094 0.603516
vt 0.136719 0.603516
vt 0.343066 0.882642
vt 0.343408 0.882642
vt 0.130176 0.871094
vt 0.130517 0.870923
vt 0.130176 0.870923
vt 0.343408 0.845190
vt 0.343408 0.845532
vt 0.343408 0.845190
vt 0.397754 0.843579
vt 0.398096 0.843237
vt 0.398096 0.843579
vt 0.341797 0.794922
vt 0.333984 0.794922
vt 0.318359 0.794922
vt 0.343408 0.845532
vt 0.343408 0.845190
vt 0.343408 0.845190
vt 0.130176 0.871436
vt 0.130517 0.871094
vt 0.130859 0.871436
vt 0.130859 0.871094
vt 0.130517 0.870923
vt 0.130517 0.870581
vt 0.388672 0.794922
vt 0.343066 0.882642
vt 0.130176 0.871094
vt 0.342895 0.882983
vt 0.131201 0.869384
vt 0.131201 0.869042
vt 0.131543 0.871094
vt 0.132227 0.871436
vt 0.131543 0.870581
vt 0.130859 0.871436
vt 0.130517 0.871094
vt 0.130176 0.871436
vt 0.343408 0.882300
vt 0.119597 0.869111
vt 0.130176 0.870581
vt 0.119599 0.869111
vt 0.332488 0.880830
vt 0.119597 0.869111
vt 0.130176 0.870581
vt 0.130517 0.870581
vt 0.136719 0.541016
vt 0.343066 0.881787
vt 0.332489 0.880830
vt 0.385921 0.881581
vt 0.385229 0.876918
vt 0.385229 0.876919
vt 0.131543 0.871436
vt 0.388672 0.794922
vt 0.343408 0.882642
vt 0.385224 0.876923
vt 0.385224 0.876923
vt 0.385229 0.876919
vt 0.343408 0.881787
vt 0.343408 0.881787
vt 0.343408 0.881787
vt 0.343408 0.844677
vt 0.343408 0.844848
vt 0.343408 0.844848
vt 0.131201 0.871094
vt 0.343066 0.882300
vt 0.342553 0.882812
vt 0.343408 0.844848
vt 0.343408 0.844677
vt 0.343408 0.844848
vt 0.131616 0.879077
vt 0.130005 0.871265
vt 0.132129 0.879590
vt 0.343066 0.881787
vt 0.343408 0.881958
vt 0.343408 0.881958
vt 0.114583 0.843209
vt 0.116072 0.842673
vt 0.114587 0.843215
vt 0.114583 0.843206
vt 0.114583 0.843208
vt 0.343066 0.882300
vt 0.131616 0.879077
vt 0.120296 0.873769
vt 0.130761 0.879586
vt 0.132740 0.871436
vt 0.397583 0.843750
vt 0.397241 0.843750
vt 0.397241 0.843750
vt 0.130176 0.871777
vt 0.343066 0.881787
vt 0.131543 0.869042
vt 0.131543 0.869384
vt 0.385224 0.876924
vt 0.385222 0.876923
vt 0.385222 0.876924
vt 0.132911 0.871436
vt 0.132569 0.871094
vt 0.131543 0.869384
vt 0.333186 0.885487
vt 0.116072 0.842673
vt 0.114583 0.843209
vt 0.114587 0.843215
vt 0.114583 0.843206
vt 0.116570 0.842673
vt 0.342040 0.882983
vt 0.385222 0.876924
vt 0.342040 0.882812
vt 0.342553 0.882812
vt 0.333186 0.885487
vt 0.130517 0.869726
vt 0.130517 0.870239
vt 0.131543 0.870324
vt 0.130859 0.871094
vt 0.398096 0.843579
vt 0.342895 0.882812
vt 0.130176 0.870068
vt 0.343408 0.881958
vt 0.397241 0.843750
vt 0.397583 0.843750
vt 0.397583 0.843921
vt 0.318359 0.794922
vt 0.121094 0.541016
vt 0.343408 0.845532
vt 0.397754 0.843237
vt 0.343408 0.845532
vt 0.131543 0.870068
vt 0.131543 0.870324
vt 0.131543 0.870581
vt 0.130517 0.870239
vt 0.130176 0.870923
vt 0.119599 0.869111
vt 0.121094 0.541016
vt 0.385224 0.876923
vt 0.385229 0.876918
vt 0.385921 0.881581
vt 0.343408 0.844677
vt 0.343408 0.844677
vt 0.132129 0.879248
vt 0.120296 0.873769
vt 0.130761 0.878906
vt 0.122249 0.881581
vt 0.131103 0.878906
vt 0.130005 0.871094
vt 0.129663 0.871094
vt 0.116570 0.842673
vt 0.132129 0.879248
vt 0.130005 0.871265
vt 0.130005 0.871094
vt 0.131103 0.878906
vt 0.130761 0.878906
vt 0.122249 0.881581
vt 0.129663 0.871094
vt 0.397241 0.843921
vt 0.397583 0.843750
vt 0.397583 0.843921
vt 0.114583 0.843208
vn -0.2604 0.9642 -0.0501
vn -0.8824 0.0001 0.4705
vn -0.0493 0.9988 0.0000
vn 0.2223 0.9672 -0.1233
vn -1.0000 0.0002 -0.0038
vn -0.7047 -0.7095 0.0000
vn 0.9724 0.2332 0.0000
vn 0.3169 0.9484 0.0000
vn 0.0000 -0.4539 -0.8911
vn -1.0000 0.0002 0.0038
vn 0.9046 -0.0003 -0.4263
vn -0.9999 0.0002 -0.0119
vn 0.0000 -0.0002 -1.0000
vn 0.0000 0.0002 1.0000
vn 0.0000 1.0000 0.0000
vn 0.0000 0.9905 -0.1374
vn 1.0000 -0.0002 0.0000
vn 0.0000 0.0000 1.0000
vn 0.8640 -0.2485 -0.4378
vn -0.1662 0.9861 0.0000
vn 0.0581 0.9983 0.0000
vn 0.0000 -0.4539 0.8911
vn -0.9115 -0.2029 0.3579
vn -0.7165 0.0003 0.6976
vn 0.9654 -0.0002 0.2606
vn 0.9046 -0.0003 0.4263
vn 0.0000 -1.0000 -0.0010
vn 0.9654 -0.0003 -0.2606
vn 0.9990 -0.0002 0.0440
vn 0.9770 0.1052 0.1857
vn 0.6228 0.0000 -0.7824
vn -0.7288 0.6847 0.0000
vn 0.0000 0.0002 -1.0000
vn 0.7482 0.6635 0.0000
vn -0.8824 0.0001 -0.4705
vn 0.0147 0.2519 0.9676
vn 0.0000 -0.0002 1.0000
vn 0.8423 -0.5389 0.0000
vn 0.8275 0.5615 0.0000
vn 0.6228 0.0000 0.7824
vn -0.0024 0.2709 -0.9626
vn -0.9707 0.1186 -0.2088
vn 0.8228 -0.5049 -0.2609
vn 0.0000 -0.0631 -0.9980
vn -0.0126 0.2550 0.9669
vn -0.9600 0.2799 0.0000
vn 0.0000 0.9521 0.3059
vn 0.8228 -0.5049 0.2609
vn -0.9707 0.1186 0.2088
vn 0.6374 0.7415 -0.2093
vn 0.9770 0.1052 -0.1857
vn -1.0000 0.0002 0.0000
vn -0.8960 -0.4440 0.0000
vn -0.1486 0.1153 -0.9822
vn 0.8640 -0.2485 0.4378
vn 0.0000 -1.0000 0.0000
vn 0.7204 0.6389 0.2698
vn -0.9650 0.2621 0.0000
vn -0.9999 0.0002 0.0119
vn 0.0238 0.9716 -0.2355
vn 0.0000 -1.0000 -0.0003
vn -0.0084 0.9535 -0.3014
vn 0.0000 0.9573 -0.2891
vn -0.9115 -0.2029 -0.3579
vn 0.2223 0.9672 0.1233
vn 0.8685 -0.4957 0.0000
vn -0.7165 0.0003 -0.6976
vn -0.3728 0.9279 0.0000
vn -0.1517 0.9643 0.2170
vn -0.3698 0.9203 0.1276
vn 0.9990 -0.0002 -0.0440
vn -0.0084 0.9535 0.3014
vn -0.0393 0.9773 0.2080
vn -0.3698 0.9203 -0.1276
vn 0.3089 0.9243 -0.2241
vn -0.1517 0.9643 -0.2170
vn 0.0000 -0.0358 0.9994
vn 0.0000 -0.0245 0.9997
vn 0.0016 -0.0240 0.9997
vn 0.0000 -0.0631 0.9980
vn -0.0048 -0.0056 1.0000
vn -0.0013 -0.0274 0.9996
vn 0.9654 -0.0003 0.2606
vn 0.9654 -0.0002 -0.2606
vn -0.0024 0.2709 0.9626
vn 0.0147 0.2519 -0.9676
vn 0.6727 -0.6681 -0.3180
vn 0.8380 -0.4712 -0.2752
vn 0.0000 -0.0358 -0.9994
vn 0.0000 0.0000 -1.0000
vn 0.0000 -0.0245 -0.9997
vn -0.0048 -0.0056 -1.0000
vn 0.0016 -0.0240 -0.9997
vn -0.0013 -0.0274 -0.9996
vn -0.1486 0.1153 0.9822
vn -0.9494 0.3136 0.0163
vn 0.0238 0.9716 0.2355
vn 0.8380 -0.4712 0.2752
vn 0.6727 -0.6681 0.3180
vn 0.7204 0.6389 -0.2698
vn -0.0126 0.2550 -0.9669
vn -0.9494 0.3136 -0.0163
vn 0.0000 -1.0000 0.0010
vn 0.6374 0.7415 0.2093
vn 0.0000 0.9521 -0.3059
vn -0.0004 -1.0000 0.0000
vn -0.0001 -1.0000 -0.0001
vn 0.0000 -1.0000 0.0003
vn -0.0393 0.9773 -0.2080
vn -0.0001 -1.0000 0.0001
vn 0.3089 0.9243 0.2241
vn 0.0000 0.9905 0.1374
vn -0.2604 0.9642 0.0501
vn 0.0000 0.9573 0.2891
usemtl Material
s off
f 33/1/1 5/2/1 18/3/1
f 76/4/2 48/5/2 83/6/2
f 123/7/3 38/8/3 122/9/3
f 1/10/4 30/11/4 10/12/4
f 62/13/5 68/14/5 13/15/5
f 119/16/6 8/17/6 21/18/6
f 82/19/7 105/20/7 109/21/7
f 118/22/8 20/23/8 114/24/8
f 106/25/9 109/26/9 105/27/9
f 65/28/10 67/29/10 78/30/10
f 58/31/11 82/19/11 60/32/11
f 55/33/12 84/34/12 72/35/12
f 100/36/13 102/37/13 107/38/13
f 65/39/14 77/40/14 63/41/14
f 6/42/9 79/43/9 9/44/9
f 121/45/15 20/23/15 36/46/15
f 24/47/16 25/48/16 5/2/16
f 90/49/17 96/50/17 59/51/17
f 26/52/18 7/53/18 17/54/18
f 51/55/19 89/56/19 64/57/19
f 44/58/20 115/59/20 125/60/20
f 124/61/21 40/62/21 123/7/21
f 91/63/22 94/64/22 95/65/22
f 79/66/23 99/67/23 67/29/23
f 9/68/24 79/66/24 67/29/24
f 53/69/25 64/57/25 69/70/25
f 57/71/26 59/51/26 81/72/26
f 8/17/22 75/73/22 21/18/22
f 98/74/13 109/75/13 99/67/13
f 84/76/27 66/77/27 72/78/27
f 37/79/3 123/7/3 122/9/3
f 54/80/28 66/81/28 49/82/28
f 119/16/6 6/42/6 113/83/6
f 63/41/29 82/19/29 58/31/29
f 59/51/30 96/50/30 81/72/30
f 88/84/17 89/56/17 51/55/17
f 46/85/31 51/55/31 64/57/31
f 43/86/32 122/9/32 125/87/32
f 62/88/33 73/89/33 74/90/33
f 122/9/32 44/91/32 125/87/32
f 32/92/34 117/93/34 118/22/34
f 80/94/35 84/34/35 50/95/35
f 45/96/36 41/97/36 39/98/36
f 87/99/37 89/56/37 88/84/37
f 66/81/38 104/100/38 102/37/38
f 56/101/33 69/70/33 70/102/33
f 41/103/39 121/104/39 124/105/39
f 49/106/40 66/81/40 52/107/40
f 117/93/34 30/11/34 118/22/34
f 4/108/22 51/109/22 46/110/22
f 87/111/15 51/112/15 76/113/15
f 104/114/9 107/115/9 102/116/9
f 47/117/41 42/118/41 36/119/41
f 52/120/15 100/121/15 80/122/15
f 80/94/42 107/38/42 84/34/42
f 27/123/43 12/124/43 28/125/43
f 11/126/44 52/127/44 80/128/44
f 37/79/45 45/129/45 39/98/45
f 64/57/38 89/56/38 91/130/38
f 2/131/9 52/127/9 12/124/9
f 55/33/14 71/132/14 54/80/14
f 34/133/46 120/134/46 119/16/46
f 3/135/47 35/136/47 97/137/47
f 31/138/48 16/139/48 29/140/48
f 76/4/49 83/6/49 94/141/49
f 10/12/50 28/125/50 11/126/50
f 60/142/9 50/143/9 58/144/9
f 103/145/17 60/32/17 109/21/17
f 60/32/51 82/19/51 109/21/51
f 59/146/22 48/147/22 76/148/22
f 121/104/39 42/149/39 124/105/39
f 98/74/52 99/67/52 79/66/52
f 99/67/53 106/150/53 67/29/53
f 81/72/7 96/50/7 92/151/7
f 77/152/27 78/153/27 67/154/27
f 121/45/15 22/155/15 114/24/15
f 38/8/54 47/156/54 44/91/54
f 119/16/46 120/134/46 33/1/46
f 101/157/17 52/107/17 102/37/17
f 52/107/55 66/81/55 102/37/55
f 81/158/56 92/159/56 68/160/56
f 85/161/52 75/162/52 86/163/52
f 98/164/15 60/165/15 103/166/15
f 14/167/57 31/138/57 32/92/57
f 100/36/52 107/38/52 80/94/52
f 107/38/58 108/168/58 84/34/58
f 56/101/59 83/6/59 48/169/59
f 1/10/60 36/46/60 20/23/60
f 59/170/15 85/171/15 90/172/15
f 55/173/61 54/174/61 116/175/61
f 86/163/53 68/14/53 93/176/53
f 87/99/52 76/4/52 94/141/52
f 85/161/37 96/177/37 90/178/37
f 110/179/62 47/180/62 36/181/62
f 25/182/63 47/180/63 112/183/63
f 94/141/58 83/6/58 95/184/58
f 56/185/61 61/186/61 113/187/61
f 39/98/21 124/61/21 123/7/21
f 115/59/20 43/188/20 125/60/20
f 91/189/56 95/190/56 83/191/56
f 75/162/64 68/14/64 86/163/64
f 32/92/65 3/135/65 14/167/65
f 22/155/8 118/22/8 114/24/8
f 27/123/66 117/93/66 116/192/66
f 13/193/67 68/14/67 75/162/67
f 33/1/68 115/194/68 24/195/68
f 93/196/22 96/197/22 86/198/22
f 23/199/69 26/200/69 43/188/69
f 34/133/70 7/53/70 23/201/70
f 61/202/71 81/72/71 73/89/71
f 45/203/72 97/204/72 35/205/72
f 26/206/73 45/203/73 43/207/73
f 29/140/66 117/93/66 31/138/66
f 115/194/68 34/133/68 23/201/68
f 33/1/74 24/195/74 5/2/74
f 123/7/3 40/62/3 38/8/3
f 1/10/75 20/23/75 30/11/75
f 62/13/5 74/208/5 68/14/5
f 119/16/6 113/83/6 8/17/6
f 118/22/8 30/11/8 20/23/8
f 106/25/9 99/209/9 109/26/9
f 65/28/10 9/210/10 67/29/10
f 55/33/12 50/211/12 84/34/12
f 100/36/13 101/157/13 102/37/13
f 65/39/14 78/212/14 77/40/14
f 6/42/9 19/213/9 79/43/9
f 121/45/15 114/24/15 20/23/15
f 24/47/76 44/58/76 25/48/76
f 17/54/77 21/18/77 75/73/77
f 75/73/77 59/214/77 17/54/77
f 59/214/78 76/148/78 97/137/78
f 17/54/79 59/214/79 111/215/79
f 76/148/80 51/109/80 15/216/80
f 51/109/80 16/139/80 15/216/80
f 15/216/81 14/167/81 76/148/81
f 14/167/18 3/135/18 97/137/18
f 97/137/78 111/215/78 59/214/78
f 111/215/18 26/52/18 17/54/18
f 14/167/82 97/137/82 76/148/82
f 44/58/20 24/47/20 115/59/20
f 124/61/21 42/118/21 40/62/21
f 91/63/22 89/217/22 94/64/22
f 53/69/83 46/218/83 64/57/83
f 8/17/22 13/219/22 75/73/22
f 98/74/13 103/220/13 109/75/13
f 84/76/56 108/221/56 104/222/56
f 66/77/27 71/223/27 72/78/27
f 84/76/56 104/222/56 66/77/56
f 37/79/3 39/98/3 123/7/3
f 54/80/84 71/132/84 66/81/84
f 119/16/6 19/213/6 6/42/6
f 63/41/29 77/40/29 82/19/29
f 43/86/32 37/79/32 122/9/32
f 62/88/33 61/202/33 73/89/33
f 122/9/32 38/8/32 44/91/32
f 32/92/34 31/138/34 117/93/34
f 45/96/85 35/224/85 41/97/85
f 87/99/37 94/141/37 89/56/37
f 56/101/33 53/69/33 69/70/33
f 41/103/39 35/225/39 121/104/39
f 117/93/34 28/125/34 30/11/34
f 4/108/22 16/139/22 51/109/22
f 87/111/15 88/226/15 51/112/15
f 104/114/9 108/227/9 107/115/9
f 47/117/86 40/62/86 42/118/86
f 52/120/15 101/228/15 100/121/15
f 2/131/87 12/124/87 27/123/87
f 12/124/88 11/126/88 28/125/88
f 19/213/89 18/3/89 79/43/89
f 18/3/90 5/2/90 25/229/90
f 25/229/90 112/230/90 18/3/90
f 112/230/91 110/231/91 60/232/91
f 80/128/92 10/12/92 11/126/92
f 79/43/89 18/3/89 60/232/89
f 80/128/91 60/232/91 110/231/91
f 60/232/93 18/3/93 112/230/93
f 10/12/94 80/128/94 110/231/94
f 110/231/90 1/10/90 10/12/90
f 11/126/44 12/124/44 52/127/44
f 37/79/95 43/86/95 45/129/95
f 2/131/9 49/233/9 52/127/9
f 55/33/14 72/35/14 71/132/14
f 119/16/46 21/18/46 34/133/46
f 21/18/96 17/54/96 34/133/96
f 3/135/97 22/155/97 35/136/97
f 15/216/98 16/139/98 31/138/98
f 16/139/99 4/108/99 29/140/99
f 10/12/100 30/11/100 28/125/100
f 60/142/9 80/128/9 50/143/9
f 59/146/22 57/234/22 48/147/22
f 121/104/39 36/235/39 42/149/39
f 67/154/56 106/25/56 105/27/56
f 105/27/56 82/236/56 67/154/56
f 82/236/27 77/152/27 67/154/27
f 121/45/15 35/136/15 22/155/15
f 38/8/101 40/62/101 47/156/101
f 33/1/102 18/3/102 19/213/102
f 19/213/46 119/16/46 33/1/46
f 92/159/56 93/196/56 68/160/56
f 68/160/103 74/237/103 73/238/103
f 73/238/103 81/158/103 68/160/103
f 98/164/15 79/239/15 60/165/15
f 14/167/104 15/216/104 31/138/104
f 56/101/59 70/102/59 83/6/59
f 1/10/105 110/231/105 36/46/105
f 59/170/15 75/240/15 85/171/15
f 27/241/106 116/175/106 54/174/106
f 116/175/107 113/187/107 55/173/107
f 55/173/108 113/187/108 63/242/108
f 113/187/106 6/243/106 65/244/106
f 6/243/27 9/245/27 65/244/27
f 49/246/27 2/131/27 54/174/27
f 2/131/27 27/241/27 54/174/27
f 113/187/108 65/244/108 63/242/108
f 63/242/27 58/144/27 55/173/27
f 58/144/27 50/247/27 55/173/27
f 85/161/37 86/163/37 96/177/37
f 110/179/63 112/183/63 47/180/63
f 25/182/109 44/248/109 47/180/109
f 113/187/110 116/175/110 56/185/110
f 116/175/106 29/249/106 53/250/106
f 29/249/103 4/108/103 53/250/103
f 4/108/103 46/251/103 53/250/103
f 13/252/103 8/253/103 62/254/103
f 8/253/106 113/187/106 62/254/106
f 116/175/108 53/250/108 56/185/108
f 56/185/103 48/255/103 57/234/103
f 61/186/61 62/254/61 113/187/61
f 56/185/103 57/234/103 61/186/103
f 39/98/21 41/97/21 124/61/21
f 115/59/20 23/199/20 43/188/20
f 83/191/103 70/256/103 64/257/103
f 70/256/103 69/258/103 64/257/103
f 64/257/56 91/189/56 83/191/56
f 32/92/111 22/155/111 3/135/111
f 22/155/8 32/92/8 118/22/8
f 27/123/66 28/125/66 117/93/66
f 33/1/68 120/134/68 115/194/68
f 93/196/22 92/159/22 96/197/22
f 23/199/112 7/53/112 26/200/112
f 34/133/113 17/54/113 7/53/113
f 61/202/71 57/71/71 81/72/71
f 45/203/114 111/259/114 97/204/114
f 26/206/114 111/259/114 45/203/114
f 29/140/66 116/192/66 117/93/66
f 115/194/68 120/134/68 34/133/68
